<svg xmlns="http://www.w3.org/2000/svg" version="1.1" xmlns:xlink="http://www.w3.org/1999/xlink" width="512" height="512" x="0" y="0" viewBox="0 0 4335 4335" style="enable-background:new 0 0 512 512" xml:space="preserve" fill-rule="evenodd" class=""><g><g fill="#211d21"><path d="M660 4067c276 24 1597 239 1721 237 74-1 721-99 856-117 283-39 572-89 855-120-12-35-44-89-61-122l-316-583c-40-71-82-170-129-232-79-2-228 27-313 39-98 14-200 26-299 41-100 15-199 28-301 42-77 11-232 41-301 40-137-2-1075-165-1208-164l-504 938z" fill="#3b108c" opacity="1" data-original="#211d21" class=""></path><path d="m1466 3055 907 128c58 1 882-118 911-130l4-702c-94-4-342 45-448 60l-459 64c-53 1-169-22-229-30-138-18-616-98-685-93l-1 704zM2097 36c-389 65-798 779-870 1212-31 187-34 485 207 450 209-31 439-304 555-479 165-250 398-741 305-1050-26-87-88-151-198-133zM1930 1485c179 6 1025 49 1127 261-13 7-553 97-589 83-35-14-30-46-87-48-194-5-104 360 54 244 77-56-60-41 200-79 159-23 335-55 493-68 30 201-50 232-73 306l253 34c62-184 99-342 8-535-74-158-196-230-317-331-137-114-133-105-259-227-117-112-243-257-335-393-6-9-9-15-18-26l-27-26c-40 206-226 540-360 711-25 31-50 56-70 93z" fill="#3b108c" opacity="1" data-original="#211d21" class=""></path><path d="m1789 2135-4 150c170 88 1013 89 1179 0l3-149c-171-90-1008-87-1178-1z" fill="#3b108c" opacity="1" data-original="#211d21" class=""></path></g></g></svg>